<svg width="19" height="19" viewBox="0 0 19 19" fill="none" xmlns="http://www.w3.org/2000/svg">
<g id="_&#235;&#160;&#136;&#236;&#157;&#180;&#236;&#150;&#180;_1" clip-path="url(#clip0_44_1062)">
<path id="Vector" d="M18.2532 5.80073C17.7669 4.67185 17.0896 3.64717 16.2212 2.77879C15.3528 1.91042 14.3282 1.21572 13.1993 0.746801C12.0356 0.243144 10.7852 0 9.5 0C8.21481 0 6.98172 0.243144 5.80073 0.746801C4.67185 1.23309 3.64717 1.91042 2.77879 2.77879C1.91042 3.64717 1.21572 4.67185 0.746801 5.80073C0.243144 6.96435 0 8.21481 0 9.5C0 10.7852 0.243144 12.0183 0.746801 13.1993C1.23309 14.3282 1.91042 15.3528 2.77879 16.2212C2.96984 16.4123 3.17825 16.6033 3.38665 16.777L3.5777 16.117C3.75137 15.4744 4.01188 14.8492 4.39397 14.2934C4.75868 13.7377 5.21024 13.2514 5.73126 12.8519C6.25229 12.4351 6.84278 12.1225 7.46801 11.8967C8.1106 11.6709 8.8053 11.5494 9.5 11.5494C10.1947 11.5494 10.872 11.6709 11.532 11.8967C12.1572 12.1225 12.7477 12.4351 13.2687 12.8519C13.7898 13.2687 14.2413 13.755 14.606 14.2934C14.9707 14.8492 15.2486 15.4744 15.4223 16.117L15.596 16.7943C15.8044 16.6207 16.0128 16.4296 16.2212 16.2212C17.0896 15.3528 17.7843 14.3282 18.2532 13.1993C18.7569 12.0357 19 10.7852 19 9.5C19 8.21481 18.7569 6.98172 18.2532 5.80073Z" fill="#7DDEFB"/>
<g id="Group">
<path id="Vector_2" d="M15.4049 16.117C15.2312 15.4744 14.9707 14.8492 14.5886 14.2934C14.2239 13.7377 13.7724 13.2514 13.2513 12.8519C12.7303 12.4351 12.1398 12.1225 11.5146 11.8967C10.872 11.6709 10.1773 11.5494 9.48261 11.5494C8.78791 11.5494 8.11058 11.6709 7.45062 11.8967C6.82539 12.1225 6.23489 12.4351 5.71387 12.8519C5.19285 13.2688 4.74129 13.755 4.37658 14.2934C4.01186 14.8492 3.73398 15.4744 3.5603 16.117L3.36926 16.777C3.47347 16.8638 3.5603 16.9333 3.66451 17.0201C4.30711 17.5238 5.01917 17.9406 5.78334 18.2532C6.94696 18.7569 8.19742 19 9.48261 19C10.7678 19 12.0009 18.7569 13.1819 18.2532C13.9981 17.9059 14.7623 17.4543 15.457 16.8812C15.4917 16.8465 15.5265 16.8117 15.5786 16.7944L15.4049 16.117Z" fill="#0099D8"/>
<path id="Vector_3" d="M12.6261 6.06123C12.4524 5.66178 12.2093 5.29707 11.8966 4.98445C11.584 4.67184 11.2193 4.42869 10.8199 4.25502C10.403 4.08134 9.95149 3.99451 9.49994 3.99451C9.04838 3.99451 8.59683 4.08134 8.18001 4.25502C7.78056 4.42869 7.41584 4.67184 7.10323 4.98445C6.79061 5.29707 6.54747 5.66178 6.37379 6.06123C6.20012 6.47805 6.11328 6.92961 6.11328 7.38116C6.11328 7.83272 6.20012 8.28427 6.37379 8.70109C6.54747 9.10054 6.79061 9.46526 7.10323 9.77787C7.41584 10.0905 7.78056 10.3336 8.18001 10.5073C8.59683 10.681 9.04838 10.7678 9.49994 10.7678C9.95149 10.7678 10.403 10.681 10.8199 10.5073C11.2193 10.3336 11.584 10.0905 11.8966 9.77787C12.2093 9.46526 12.4524 9.10054 12.6261 8.70109C12.7998 8.28427 12.8866 7.83272 12.8866 7.38116C12.8866 6.92961 12.7998 6.47805 12.6261 6.06123Z" fill="#0099D8"/>
</g>
</g>
<defs>
<clipPath id="clip0_44_1062">
<rect width="19" height="19" fill="white"/>
</clipPath>
</defs>
</svg>
