<svg width="136" height="26" viewBox="0 0 136 26" fill="none" xmlns="http://www.w3.org/2000/svg">
<g id="logo 2" clip-path="url(#clip0_105_8687)">
<g id="&#234;&#183;&#184;&#235;&#163;&#185; 5539">
<path id="&#237;&#140;&#168;&#236;&#138;&#164; 3204" d="M65.3542 24.6966L69.5207 6.79118L59.1309 24.331H55.0389L54.544 6.79118L49.0263 24.6966H44.2032L51.6498 2.39102H58.7014L59.0374 16.9684L67.7126 2.38831H75.0684L70.4696 24.6938L65.3542 24.6966Z" fill="#0095CE"/>
<path id="&#237;&#140;&#168;&#236;&#138;&#164; 3205" d="M82.346 6.05913C82.346 6.05913 83.493 6.06367 84.4801 6.06367C86.5252 6.06367 88.2033 6.75846 88.2033 8.87554C88.2033 11.1241 86.1219 12.9446 82.9817 12.9446C82.296 12.9542 81.611 12.8992 80.9357 12.7804L82.346 6.05913ZM73.302 24.6956H78.451L80.1302 16.6863C80.6805 16.7189 81.4124 16.8178 82.2888 16.8178C85.0685 16.9273 87.8171 16.2005 90.1785 14.7315C91.2041 14.0408 92.0439 13.1086 92.6235 12.0171C93.2031 10.9256 93.5049 9.70838 93.5022 8.47283C93.536 7.51588 93.305 6.56812 92.8348 5.73365C92.3647 4.89919 91.6734 4.21025 90.8369 3.74248C89.047 2.58144 86.5233 2.37646 84.2939 2.37646H77.977L73.302 24.6956Z" fill="#0095CE"/>
<path id="&#237;&#140;&#168;&#236;&#138;&#164; 3206" d="M108.426 2.38831H113.911L96.2611 24.6938H90.154L97.2373 16.1893L93.1962 2.38831H98.3561L100.783 12.0939L108.426 2.38831Z" fill="#0095CE"/>
<path id="&#237;&#140;&#168;&#236;&#138;&#164; 3207" d="M123.448 0.364586C120.92 0.349666 118.415 0.843271 116.083 1.81592L107.281 12.9383C107.132 13.7733 107.055 14.6198 107.053 15.4681C107.053 21.1825 111.394 25.6979 119.152 25.6979H119.195C123.174 25.8236 127.074 24.5631 130.225 22.1323C131.899 20.7135 133.239 18.9438 134.151 16.9491C135.063 14.9544 135.524 12.7836 135.501 10.5908C135.501 4.73304 131.334 0.364586 123.448 0.364586ZM119.938 21.8456H119.893C115.241 21.8456 113.173 19.1009 113.173 15.4273C113.173 10.4838 116.965 4.22142 122.77 4.22142C127.855 4.22142 129.297 7.35351 129.297 10.599C129.296 15.5053 125.503 21.8456 119.935 21.8456H119.938Z" fill="#0095CE"/>
<path id="&#237;&#140;&#168;&#236;&#138;&#164; 3208" d="M39.6045 24.6966H45.1195L42.2707 2.38831H35.5143L23.4963 24.6938H29.1266L31.4187 19.9445H39.2067L39.6045 24.6966ZM33.1641 16.3217C33.1641 16.3217 37.3415 7.45513 37.9599 6.09998L38.8952 16.3217H33.1641Z" fill="#0095CE"/>
<path id="&#237;&#140;&#168;&#236;&#138;&#164; 3209" d="M18.7966 10.7305C15.7998 9.6057 13.8373 8.92454 13.5222 7.5068C13.2262 6.19338 14.3967 4.90079 17.557 4.61416C21.7706 4.30395 26.0715 6.02917 28.8767 7.63104L31.2378 3.24903C26.8139 0.752851 21.7369 -0.346677 16.6752 0.0951865H16.6444C10.6045 0.639423 5.55891 3.45948 6.64502 8.29411C7.23712 10.9373 9.85343 12.9011 14.2969 14.6082C16.6398 15.5071 19.1262 16.5828 19.4332 17.9561C19.8427 19.7902 17.6469 20.9404 15.0569 21.188H15.0052C10.717 21.5708 6.31269 19.9372 3.01804 18.1793L0.497986 22.9168C5.0464 25.1128 10.0651 26.1597 15.1132 25.9655C17.382 25.942 19.6257 25.4899 21.7261 24.633L26.2513 16.2354C25.464 14.083 23.2673 12.4067 18.7966 10.7305Z" fill="#0095CE"/>
</g>
</g>
<defs>
<clipPath id="clip0_105_8687">
<rect width="135" height="26" fill="white" transform="translate(0.5)"/>
</clipPath>
</defs>
</svg>
